{"title":"Six.Nations-Wales.v.Ireland-2013.02.02.720p.x264 ","uid":8097110,"size":3077870837,"categoryP":"video","categoryS":"hd___tv_shows","magnet":"?xt=urn:btih:4fa77d5153a31a225289b5de9797ec8beac24a73&amp;dn=Six.Nations-Wales.v.Ireland-2013.02.02.720p.x264+&amp;tr=udp%3A%2F%2Ftracker.openbittorrent.com%3A80&amp;tr=udp%3A%2F%2Fopen.demonii.com%3A1337&amp;tr=udp%3A%2F%2Ftracker.coppersurfer.tk%3A6969&amp;tr=udp%3A%2F%2Fexodus.desync.com%3A6969","seeders":1,"leechers":0,"uploader":"rugbybill","files":2,"time":1359866786,"description":"SPORT: Six Nations Rugby Union - Wales v Ireland.\nOn: BBC 1 HD   \nDate: Saturday 2nd February 2013 \nKO Time: 13:30 \n\nlive coverage from Cardiff's Millennium Stadium as Wales begin the defence of their Six Nations crown. The Welsh opened the 2012 campaign with victory over Declan Kidney's side in Dublin, before going on to complete their third Grand Slam in seven years. But since then they have endured a torrid time, losing their Test series in Australia 3-0, before suffering four defeats in the Autumn Internationals series, including a surprise loss to Samoa. Ireland will be looking to build on the promise they showed last time out, with a 46-24 victory over Argentina in November. \n\n\nGeneral\nComplete name                            : 2013.02.02.6N.Wales.v.Ireland.720p.x264.mp4\nFormat                                   : MPEG-4\nFormat profile                           : Base Media\nCodec ID                                 : isom\nFile size                                : 2.87 GiB\nDuration                                 : 1h 43mn\nOverall bit rate mode                    : Variable\nOverall bit rate                         : 3 959 Kbps\n                                 \nVideo\nID                                       : 1\nFormat                                   : AVC\nFormat/Info                              : Advanced Video Codec\nFormat profile                           : &lt;a class=&quot;__cf_email__&quot; href=&quot;/cdn-cgi/l/email-protection&quot; data-cfemail=&quot;9bd3f2fcf3dbd7afb5aa&quot;&gt;[email&amp;#160;protected]&lt;/a&gt;&lt;script cf-hash='f9e31' type=&quot;text/javascript&quot;&gt;\n/* &lt;![CDATA[ */!function(){try{var t=&quot;currentScript&quot;in document?document.currentScript:function(){for(var t=document.getElementsByTagName(&quot;script&quot;),e=t.length;e--;)if(t[e].getAttribute(&quot;cf-hash&quot;))return t[e]}();if(t&amp;&amp;t.previousSibling){var e,r,n,i,c=t.previousSibling,a=c.getAttribute(&quot;data-cfemail&quot;);if(a){for(e=&quot;&quot;,r=parseInt(a.substr(0,2),16),n=2;a.length-n;n+=2)i=parseInt(a.substr(n,2),16)^r,e+=String.fromCharCode(i);e=document.createTextNode(e),c.parentNode.replaceChild(e,c)}}}catch(u){}}();/* ]]&gt; */&lt;/script&gt;\nFormat settings, CABAC                   : Yes\nFormat settings, ReFrames                : 5 frames\nCodec ID                                 : avc1\nCodec ID/Info                            : Advanced Video Coding\nDuration                                 : 1h 43mn\nBit rate                                 : 3 831 Kbps\nMaximum bit rate                         : 10.1 Mbps\nWidth                                    : 1 280 pixels\nHeight                                   : 720 pixels\nDisplay aspect ratio                     : 16:9\nFrame rate mode                          : Constant\nFrame rate                               : 25.000 fps\nColor space                              : YUV\nChroma subsampling                       : 4:2:0\nBit depth                                : 8 bits\nScan type                                : Progressive\nBits/(Pixel*Frame)                       : 0.166\nStream size                              : 2.77 GiB (97%)\nWriting library                          : x264 core 129 r2230 1cffe9f\n\nAudio\nID                                       : 2\nFormat                                   : AAC\nFormat/Info                              : Advanced Audio Codec\nFormat profile                           : LC\nCodec ID                                 : 40\nDuration                                 : 1h 43mn\nBit rate mode                            : Variable\nBit rate                                 : 124 Kbps\nMaximum bit rate                         : 129 Kbps\nChannel(s)                               : 2 channels\nChannel positions                        : Front: L R\nSampling rate                            : 48.0 KHz\nCompression mode                         : Lossy\nStream size                              : 91.8 MiB (3%)\n","torrent":{"xt":"urn:btih:4fa77d5153a31a225289b5de9797ec8beac24a73","amp;dn":"Six.Nations-Wales.v.Ireland-2013.02.02.720p.x264+","amp;tr":["udp%3A%2F%2Ftracker.openbittorrent.com%3A80","udp%3A%2F%2Fopen.demonii.com%3A1337","udp%3A%2F%2Ftracker.coppersurfer.tk%3A6969","udp%3A%2F%2Fexodus.desync.com%3A6969"],"infoHash":"4fa77d5153a31a225289b5de9797ec8beac24a73","infoHashBuffer":{"type":"Buffer","data":[79,167,125,81,83,163,26,34,82,137,181,222,151,151,236,139,234,194,74,115]},"announce":[],"urlList":[]}}